<svg xmlns:dc="http://purl.org/dc/elements/1.1/" xmlns:cc="http://creativecommons.org/ns#" xmlns:rdf="http://www.w3.org/1999/02/22-rdf-syntax-ns#" xmlns:svg="http://www.w3.org/2000/svg" xmlns="http://www.w3.org/2000/svg" viewBox="0 0 146.66667 146.66667" height="146.66667" width="146.66667" xml:space="preserve" id="svg2" version="1.1" xmlns:xlink="http://www.w3.org/1999/xlink">
 <metadata id="metadata8">
  <rdf:RDF>
   <cc:Work rdf:about="">
    <dc:format>
     image/svg+xml
    </dc:format>
    <dc:type rdf:resource="http://purl.org/dc/dcmitype/StillImage">
    </dc:type>
   </cc:Work>
  </rdf:RDF>
 </metadata>
 <defs id="defs6">
 </defs>
 <g transform="matrix(1.3333333,0,0,-1.3333333,0,146.66667)" id="g10">
  <g transform="scale(0.1)" id="g12">
   <path id="path14" style="fill:#2421f0;fill-opacity:1;fill-rule:nonzero;stroke:none" d="M 0,1100.02 V -0.0195313 H 1100 V 1099.98 c 0,0.02 -0.01,0.04 -0.03,0.04 H 0">
   </path>
   <path id="path16" style="fill:#ffffff;fill-opacity:1;fill-rule:nonzero;stroke:none" d="m 792.703,733.555 c -3.437,136.222 -58.84,190.883 -190.851,190.883 -6.45,0 -146.274,-0.067 -195.582,-0.098 l 0.066,-126.824 c 143.906,0.066 135.316,0.066 141.992,0.035 56.539,-0.098 87.824,0.031 87.824,-51.485 v -73.878 c -26.617,0.355 -90.836,1.199 -138.168,1.199 -132.043,0 -187.414,-54.66 -190.851,-190.883 h -0.129 c -0.063,-3.438 -0.063,-113.207 0,-116.676 h 0.129 c 3.242,-128.379 52.648,-184.265 168.902,-190.265 l 120.274,127.601 c -12.254,-1.328 -27.102,-1.363 -44.801,-1.328 -56.606,0.098 -87.887,-0.035 -87.887,51.48 v 141.735 c 0,51.547 31.281,51.414 87.887,51.512 59.586,0.066 87.789,0.035 87.789,-51.512 V 176.242 c 5.965,0.102 153.73,0.133 153.73,0.133 l -0.324,557.18">
   </path>
  </g>
 </g>
</svg>